<?xml version="1.0" encoding="utf-8"?>
<!-- Generator: Adobe Illustrator 18.1.1, SVG Export Plug-In . SVG Version: 6.00 Build 0)  -->
<svg version="1.1" id="Vrstva_1" xmlns="http://www.w3.org/2000/svg" xmlns:xlink="http://www.w3.org/1999/xlink" x="0px" y="0px"
	 width="800px" height="800px"  xml:space="preserve">
<path fill="none" stroke="#000000" stroke-miterlimit="10" id='path1' stroke-width="3" d="M404.3,0c7.7,12.7,7.2,27.5-0.7,36.7c-9.1,10.6-27.8,12.9-33.3,6
	c-3.5-4.3-2.3-12.9,2-18c11.4-13.6,51.3-10.3,67.3,12c16.4,22.7,2.7,58.2-16.7,76c-29.5,27.1-82.5,23-95.3,2
	c-6.2-10.1-4.6-26.6,2.7-30.7c6.7-3.8,17,3.7,28.7,11.3c0,0,31.2,20.5,65.3,36.7c6,2.8,62.6,28.6,109.3,5.3
	c10.8-5.4,28-16.8,26-22.7c-2.8-8.5-47.3-9.5-61.3,12c-4.4,6.7-4.3,16-4,34.7c0.4,26.9,5.2,32.1,2,47.3c-1.3,6.2-4.5,21-16,30.7
	c-7.7,6.5-17.4,9.2-65.3,7.3c-40.3-1.5-43.3-3.8-55.3-0.7c-25.6,6.7-51,27.4-48,41.3c2.6,11.8,24.9,16,46,20
	c45.3,8.6,82.9-0.8,90-2.7c14.4-3.7,16.2-5.9,50.7-16c26.7-7.8,35.3-9.4,46-7.3c5.5,1.1,29.9,5.7,36.7,26c4.6,14-0.8,30.7-11.3,39.3
	c-10.5,8.6-22.7,6.6-54.7,3.3c-74.5-7.5-83.9-4-88.7,2c-8.1,10.2-4.7,30.5,6,38c15.9,11.2,47.9-5.9,47.3-16
	c-0.7-12.2-50.2-29.1-76.7-11.3c-13.4,9-10,19.6-28.7,55.3c-19.8,37.9-32.9,43.6-29.3,54.7c8.3,25.6,88.2,22.4,97.3,22
	c56.5-2.6,77.2-20.4,110-5.3c5.3,2.4,29.4,13.5,33.3,34.7c4,21.5-14.3,44.9-34,55.3c-29.1,15.4-47.2-5.1-78.7,10
	c-17.6,8.5-35.6,26.3-41.3,48c-4.2,15.7-5.8,47.7,1.3,72.7c1.1,3.7,3.9,12.9,0,22c-3.1,7.2-9.3,11.5-14,14"/>
</svg>
